<?xml version="1.0" encoding="UTF-8"?>
<svg xmlns="http://www.w3.org/2000/svg" xmlns:xlink="http://www.w3.org/1999/xlink" width="200px" height="200px" viewBox="0 0 200 200" version="1.1">
<defs>
<clipPath id="clip1">
  <path d="M 0 0 L 199.941406 0 L 199.941406 199.941406 L 0 199.941406 Z M 0 0 "/>
</clipPath>
<clipPath id="clip2">
  <path d="M 59.453125 42.617188 L 140.488281 42.617188 L 140.488281 157.324219 L 59.453125 157.324219 Z M 59.453125 42.617188 "/>
</clipPath>
</defs>
<g id="surface1">
<g clip-path="url(#clip1)" clip-rule="nonzero">
<path style="fill-rule:nonzero;fill:rgb(99.607843%,0%,22.352941%);fill-opacity:1;stroke-width:1;stroke-linecap:butt;stroke-linejoin:miter;stroke:rgb(100%,100%,100%);stroke-opacity:1;stroke-miterlimit:4;" d="M -0.000000000000034677 166.954336 C -0.000000000000034677 74.745547 74.745547 -0.000000000000006142 166.954336 -0.000000000000006142 C 259.156602 -0.000000000000006142 333.902148 74.745547 333.902148 166.954336 C 333.902148 259.156602 259.156602 333.902148 166.954336 333.902148 C 74.745547 333.902148 -0.000000000000034677 259.156602 -0.000000000000034677 166.954336 Z M 166.954336 316.628086 C 249.619336 316.628086 316.628086 249.619336 316.628086 166.954336 C 316.628086 84.289336 249.619336 17.274062 166.954336 17.274062 C 84.289336 17.274062 17.274062 84.289336 17.274062 166.954336 C 17.274062 249.619336 84.289336 316.628086 166.954336 316.628086 Z M 166.954336 316.628086 " transform="matrix(0.598802,0,0,0.598802,0.000000000000020765,0.000000000000003678)"/>
</g>
<path style=" stroke:none;fill-rule:nonzero;fill:rgb(99.607843%,0%,22.352941%);fill-opacity:1;" d="M 195.945312 99.972656 C 195.945312 46.96875 152.976562 4 99.972656 4 C 46.96875 4 4 46.96875 4 99.972656 C 4 152.976562 46.96875 195.945312 99.972656 195.945312 C 152.976562 195.945312 195.945312 152.976562 195.945312 99.972656 Z M 195.945312 99.972656 "/>
<g clip-path="url(#clip2)" clip-rule="nonzero">
<path style=" stroke:none;fill-rule:nonzero;fill:rgb(100%,100%,100%);fill-opacity:1;" d="M 121.800781 151.21875 L 71.109375 98.675781 L 82.765625 91.277344 C 95.839844 103.855469 107.101562 115.082031 116.546875 124.949219 C 125.972656 134.816406 133.953125 142.707031 140.488281 148.628906 C 140.363281 151.34375 139.5625 153.464844 138.082031 154.992188 C 136.601562 156.546875 134.753906 157.324219 132.53125 157.324219 C 130.4375 157.324219 128.5625 156.707031 126.910156 155.472656 C 125.230469 154.242188 123.527344 152.824219 121.800781 151.21875 Z M 130.128906 59.269531 L 84.800781 103.855469 L 69.816406 100.527344 L 125.503906 42.804688 C 128.710938 42.925781 131.113281 43.730469 132.71875 45.207031 C 134.320312 46.6875 135.125 48.414062 135.125 50.390625 C 135.125 51.992188 134.726562 53.496094 133.9375 54.902344 C 133.125 56.332031 131.855469 57.789062 130.128906 59.269531 Z M 59.453125 150.292969 L 59.453125 88.128906 L 74.625 88.128906 L 74.625 155.84375 C 73.886719 156.089844 72.898438 156.375 71.664062 156.695312 C 70.429688 156.992188 69.074219 157.140625 67.59375 157.140625 C 64.882812 157.140625 62.847656 156.585938 61.488281 155.472656 C 60.132812 154.363281 59.453125 152.636719 59.453125 150.292969 Z M 74.625 49.464844 L 74.625 100.527344 L 59.453125 100.527344 L 59.453125 43.914062 C 60.070312 43.667969 61.03125 43.382812 62.339844 43.0625 C 63.625 42.765625 65.003906 42.617188 66.484375 42.617188 C 69.199219 42.617188 71.234375 43.136719 72.589844 44.171875 C 73.945312 45.234375 74.625 46.996094 74.625 49.464844 Z M 74.625 49.464844 "/>
</g>
</g>
</svg>
